<svg xmlns="http://www.w3.org/2000/svg" xmlns:xlink="http://www.w3.org/1999/xlink" id="Layer_1" data-name="Layer 1" viewBox="0 0 200 42.81"><defs><style>.cls-1{fill:#00a68d;}.cls-2{fill:#fff;}.cls-3{clip-path:url(#clip-path);}.cls-4{clip-path:url(#clip-path-2);}.cls-5{clip-path:url(#clip-path-3);}.cls-6{clip-path:url(#clip-path-4);}.cls-7{clip-path:url(#clip-path-5);}.cls-8{fill:#164194;}.cls-9{clip-path:url(#clip-path-10);}.cls-10{font-size:9.07px;fill:#1d1d1b;font-family:MyriadPro-Regular, Myriad Pro;}.cls-11{fill:none;}</style><clipPath id="clip-path" transform="translate(0 -1.1)"><path id="SVGID" class="cls-1" d="M25.12,22.56a5.06,5.06,0,0,1-.26.44,6.52,6.52,0,0,1-1.29,1.47,8.16,8.16,0,0,1-1.49,1,8.73,8.73,0,0,0,1,.05h5.71l2.28-2.94Z"></path></clipPath><clipPath id="clip-path-2" transform="translate(0 -1.1)"><path id="SVGID-2" data-name="SVGID" class="cls-2" d="M20.65,21.71l.5-.4,0-.1a2.61,2.61,0,0,1-.45.5"></path></clipPath><clipPath id="clip-path-3" transform="translate(0 -1.1)"><path id="SVGID-3" data-name="SVGID" class="cls-2" d="M20.5,18v0a.58.58,0,0,1,.14-.13Z"></path></clipPath><clipPath id="clip-path-4" transform="translate(0 -1.1)"><path id="SVGID-4" data-name="SVGID" class="cls-2" d="M21.06,17.59a3.65,3.65,0,0,1,.72-.34,3,3,0,0,0-.72.34"></path></clipPath><clipPath id="clip-path-5" transform="translate(0 -1.1)"><path id="SVGID-5" data-name="SVGID" class="cls-1" d="M23.12,14.1a9.35,9.35,0,0,0-2.5.31,7.41,7.41,0,0,0-1.09.4h0a6.42,6.42,0,0,0-1.34.84,5,5,0,0,0-1.24,1.41,4.16,4.16,0,0,0-.24.47h0a5.26,5.26,0,0,0-.44,2.17,5.31,5.31,0,0,0,.4,2.05h1.48A3,3,0,0,0,20,21.18l0,0,0,0a2.49,2.49,0,0,1-.33-1.28,2.4,2.4,0,0,1,.72-1.79v0l.13-.09h0l.06-.05,0,0h0a3,3,0,0,1,.24-.18l.11-.07a3,3,0,0,1,.72-.34,4.3,4.3,0,0,1,1.34-.19h5.71l2.28-3Z"></path></clipPath><clipPath id="clip-path-10" transform="translate(0 -1.1)"><path id="SVGID-10" data-name="SVGID" class="cls-1" d="M31.78,23.52s1.56,1.48,3.38,3.25l-9.92,10.7L25,30.74l-.07-1.66-1.2,1.06L8.15,43.9,23.37,32.35l-.29,7.9L23,42.94l2-1.89L37.7,29.25a27.49,27.49,0,0,1,3,3.23c0,.46,2.82-11.52,2.82-11.52Z"></path></clipPath></defs><path class="cls-2" d="M31.11,22.56,28.83,25.5H23.12a8.73,8.73,0,0,1-1-.05,8.16,8.16,0,0,0,1.49-1A6.28,6.28,0,0,0,24.86,23a3.28,3.28,0,0,0,.25-.44Z" transform="translate(0 -1.1)"></path><path id="SVGID-11" data-name="SVGID" class="cls-1" d="M25.12,22.56a5.06,5.06,0,0,1-.26.44,6.52,6.52,0,0,1-1.29,1.47,8.16,8.16,0,0,1-1.49,1,8.73,8.73,0,0,0,1,.05h5.71l2.28-2.94Z" transform="translate(0 -1.1)"></path><g class="cls-3"><rect class="cls-1" x="30.62" y="21.47" width="0.49" height="2.94"></rect><rect class="cls-1" x="29.9" y="21.47" width="0.72" height="2.94"></rect><rect class="cls-1" x="29.18" y="21.47" width="0.72" height="2.94"></rect><rect class="cls-1" x="28.47" y="21.47" width="0.72" height="2.94"></rect><rect class="cls-1" x="27.75" y="21.47" width="0.72" height="2.94"></rect><rect class="cls-1" x="27.03" y="21.47" width="0.72" height="2.94"></rect><rect class="cls-1" x="26.31" y="21.47" width="0.72" height="2.94"></rect><rect class="cls-1" x="25.59" y="21.47" width="0.72" height="2.94"></rect><rect class="cls-1" x="24.88" y="21.47" width="0.72" height="2.94"></rect><rect class="cls-1" x="24.15" y="21.47" width="0.72" height="2.94"></rect><rect class="cls-1" x="23.44" y="21.47" width="0.72" height="2.94"></rect><rect class="cls-1" x="22.72" y="21.47" width="0.72" height="2.94"></rect><rect class="cls-1" x="22.08" y="21.47" width="0.64" height="2.94"></rect></g><path id="SVGID-12" data-name="SVGID" class="cls-2" d="M20.65,21.71l.5-.4,0-.1a2.61,2.61,0,0,1-.45.5" transform="translate(0 -1.1)"></path><g class="cls-4"><rect class="cls-2" x="20.65" y="20.11" width="0.5"></rect><rect class="cls-2" x="20.65" y="20.11" width="0.5" height="0.01"></rect><rect class="cls-2" x="20.65" y="20.12" width="0.5" height="0.01"></rect><rect class="cls-2" x="20.65" y="20.13" width="0.5" height="0.01"></rect><rect class="cls-2" x="20.65" y="20.14" width="0.5" height="0.01"></rect><rect class="cls-2" x="20.65" y="20.15" width="0.5" height="0.01"></rect><rect class="cls-2" x="20.65" y="20.15" width="0.5" height="0.01"></rect><rect class="cls-2" x="20.65" y="20.16" width="0.5" height="0.01"></rect><rect class="cls-2" x="20.65" y="20.17" width="0.5" height="0.01"></rect><rect class="cls-2" x="20.65" y="20.18" width="0.5" height="0.01"></rect><rect class="cls-2" x="20.65" y="20.19" width="0.5" height="0.01"></rect><rect class="cls-2" x="20.65" y="20.2" width="0.5" height="0.01"></rect><rect class="cls-2" x="20.65" y="20.21" width="0.5" height="0.01"></rect><rect class="cls-2" x="20.65" y="20.21" width="0.5" height="0.01"></rect><rect class="cls-2" x="20.65" y="20.22" width="0.5" height="0.01"></rect><rect class="cls-2" x="20.65" y="20.23" width="0.5" height="0.01"></rect><rect class="cls-2" x="20.65" y="20.24" width="0.5" height="0.01"></rect><rect class="cls-2" x="20.65" y="20.25" width="0.5" height="0.01"></rect><rect class="cls-2" x="20.65" y="20.26" width="0.5" height="0.01"></rect><rect class="cls-2" x="20.65" y="20.27" width="0.5" height="0.01"></rect><rect class="cls-2" x="20.65" y="20.27" width="0.5" height="0.01"></rect><rect class="cls-2" x="20.65" y="20.28" width="0.5" height="0.01"></rect><rect class="cls-2" x="20.65" y="20.29" width="0.5" height="0.01"></rect><rect class="cls-2" x="20.65" y="20.3" width="0.5" height="0.01"></rect><rect class="cls-2" x="20.65" y="20.31" width="0.5" height="0.01"></rect><rect class="cls-2" x="20.65" y="20.32" width="0.5" height="0.01"></rect><rect class="cls-2" x="20.65" y="20.32" width="0.5" height="0.01"></rect><rect class="cls-2" x="20.65" y="20.33" width="0.5" height="0.01"></rect><rect class="cls-2" x="20.65" y="20.34" width="0.5" height="0.01"></rect><rect class="cls-2" x="20.65" y="20.35" width="0.5" height="0.01"></rect><rect class="cls-2" x="20.65" y="20.36" width="0.5" height="0.01"></rect><rect class="cls-2" x="20.65" y="20.37" width="0.5" height="0.01"></rect><rect class="cls-2" x="20.65" y="20.37" width="0.5" height="0.01"></rect><rect class="cls-2" x="20.65" y="20.38" width="0.5" height="0.01"></rect><rect class="cls-2" x="20.65" y="20.39" width="0.5" height="0.01"></rect><rect class="cls-2" x="20.65" y="20.4" width="0.5" height="0.01"></rect><rect class="cls-2" x="20.65" y="20.41" width="0.5" height="0.01"></rect><rect class="cls-2" x="20.65" y="20.42" width="0.5" height="0.01"></rect><rect class="cls-2" x="20.65" y="20.43" width="0.5" height="0.01"></rect><rect class="cls-2" x="20.65" y="20.43" width="0.5" height="0.01"></rect><rect class="cls-2" x="20.65" y="20.44" width="0.5" height="0.01"></rect><rect class="cls-2" x="20.65" y="20.45" width="0.5" height="0.01"></rect><rect class="cls-2" x="20.65" y="20.46" width="0.5" height="0.01"></rect><rect class="cls-2" x="20.65" y="20.47" width="0.5" height="0.01"></rect><rect class="cls-2" x="20.65" y="20.48" width="0.5" height="0.01"></rect><rect class="cls-2" x="20.65" y="20.49" width="0.5" height="0.01"></rect><rect class="cls-2" x="20.65" y="20.49" width="0.5" height="0.01"></rect><rect class="cls-2" x="20.65" y="20.5" width="0.5" height="0.01"></rect><rect class="cls-2" x="20.65" y="20.51" width="0.5" height="0.01"></rect><rect class="cls-2" x="20.65" y="20.52" width="0.5" height="0.01"></rect><rect class="cls-2" x="20.65" y="20.53" width="0.5" height="0.01"></rect><rect class="cls-2" x="20.65" y="20.54" width="0.5" height="0.01"></rect><rect class="cls-2" x="20.65" y="20.54" width="0.5" height="0.01"></rect><rect class="cls-2" x="20.65" y="20.55" width="0.5" height="0.01"></rect><rect class="cls-2" x="20.65" y="20.56" width="0.5" height="0.01"></rect><rect class="cls-2" x="20.65" y="20.57" width="0.5" height="0.01"></rect><rect class="cls-2" x="20.65" y="20.58" width="0.5" height="0.01"></rect><rect class="cls-2" x="20.65" y="20.59" width="0.5" height="0.01"></rect><rect class="cls-2" x="20.65" y="20.59" width="0.5" height="0.01"></rect><rect class="cls-2" x="20.65" y="20.6" width="0.5" height="0.01"></rect><rect class="cls-2" x="20.65" y="20.61" width="0.5"></rect></g><path id="SVGID-13" data-name="SVGID" class="cls-2" d="M20.5,18v0a.58.58,0,0,1,.14-.13Z" transform="translate(0 -1.1)"></path><g class="cls-5"><rect class="cls-2" x="20.49" y="16.82" width="0.14"></rect><rect class="cls-2" x="20.49" y="16.82" width="0.14"></rect><rect class="cls-2" x="20.49" y="16.82" width="0.14"></rect><rect class="cls-2" x="20.49" y="16.83" width="0.14"></rect><rect class="cls-2" x="20.49" y="16.83" width="0.14"></rect><rect class="cls-2" x="20.49" y="16.83" width="0.14"></rect><rect class="cls-2" x="20.49" y="16.83" width="0.14"></rect><rect class="cls-2" x="20.49" y="16.84" width="0.14"></rect><rect class="cls-2" x="20.49" y="16.84" width="0.14"></rect><rect class="cls-2" x="20.49" y="16.84" width="0.14"></rect><rect class="cls-2" x="20.49" y="16.84" width="0.14"></rect><rect class="cls-2" x="20.49" y="16.84" width="0.14"></rect><rect class="cls-2" x="20.49" y="16.85" width="0.14"></rect><rect class="cls-2" x="20.49" y="16.85" width="0.14"></rect><rect class="cls-2" x="20.49" y="16.85" width="0.14"></rect><rect class="cls-2" x="20.49" y="16.85" width="0.14"></rect><rect class="cls-2" x="20.49" y="16.86" width="0.14"></rect><rect class="cls-2" x="20.49" y="16.86" width="0.14"></rect><rect class="cls-2" x="20.49" y="16.86" width="0.14"></rect><rect class="cls-2" x="20.49" y="16.86" width="0.14"></rect><rect class="cls-2" x="20.49" y="16.86" width="0.14"></rect><rect class="cls-2" x="20.49" y="16.87" width="0.14"></rect><rect class="cls-2" x="20.49" y="16.87" width="0.14"></rect><rect class="cls-2" x="20.49" y="16.87" width="0.14"></rect><rect class="cls-2" x="20.49" y="16.87" width="0.14"></rect><rect class="cls-2" x="20.49" y="16.88" width="0.14"></rect><rect class="cls-2" x="20.49" y="16.88" width="0.14"></rect><rect class="cls-2" x="20.49" y="16.88" width="0.14"></rect><rect class="cls-2" x="20.49" y="16.88" width="0.14"></rect><rect class="cls-2" x="20.49" y="16.89" width="0.14"></rect><rect class="cls-2" x="20.49" y="16.89" width="0.14"></rect><rect class="cls-2" x="20.49" y="16.89" width="0.14"></rect><rect class="cls-2" x="20.49" y="16.89" width="0.14"></rect><rect class="cls-2" x="20.49" y="16.89" width="0.14"></rect><rect class="cls-2" x="20.49" y="16.9" width="0.14"></rect><rect class="cls-2" x="20.49" y="16.9" width="0.14"></rect><rect class="cls-2" x="20.49" y="16.9" width="0.14"></rect><rect class="cls-2" x="20.49" y="16.9" width="0.14"></rect><rect class="cls-2" x="20.49" y="16.91" width="0.14"></rect><rect class="cls-2" x="20.49" y="16.91" width="0.14"></rect><rect class="cls-2" x="20.49" y="16.91" width="0.14"></rect><rect class="cls-2" x="20.49" y="16.91" width="0.14"></rect><rect class="cls-2" x="20.49" y="16.91" width="0.14"></rect><rect class="cls-2" x="20.49" y="16.92" width="0.14"></rect><rect class="cls-2" x="20.49" y="16.92" width="0.14"></rect><rect class="cls-2" x="20.49" y="16.92" width="0.14"></rect><rect class="cls-2" x="20.49" y="16.92" width="0.14"></rect><rect class="cls-2" x="20.49" y="16.93" width="0.14"></rect><rect class="cls-2" x="20.49" y="16.93" width="0.14"></rect><rect class="cls-2" x="20.49" y="16.93" width="0.14"></rect><rect class="cls-2" x="20.49" y="16.93" width="0.14"></rect><rect class="cls-2" x="20.49" y="16.94" width="0.14"></rect><rect class="cls-2" x="20.49" y="16.94" width="0.14"></rect><rect class="cls-2" x="20.49" y="16.94" width="0.14"></rect><rect class="cls-2" x="20.49" y="16.94" width="0.14"></rect><rect class="cls-2" x="20.49" y="16.94" width="0.14"></rect><rect class="cls-2" x="20.49" y="16.95" width="0.14"></rect><rect class="cls-2" x="20.49" y="16.95" width="0.14"></rect><rect class="cls-2" x="20.49" y="16.95" width="0.14"></rect><rect class="cls-2" x="20.49" y="16.95" width="0.14"></rect><rect class="cls-2" x="20.49" y="16.95" width="0.14"></rect></g><path id="SVGID-14" data-name="SVGID" class="cls-2" d="M21.06,17.59a3.65,3.65,0,0,1,.72-.34,3,3,0,0,0-.72.34" transform="translate(0 -1.1)"></path><g class="cls-6"><rect class="cls-2" x="21.06" y="16.15" width="0.73"></rect><rect class="cls-2" x="21.06" y="16.15" width="0.73" height="0.01"></rect><rect class="cls-2" x="21.06" y="16.16" width="0.73" height="0.01"></rect><rect class="cls-2" x="21.06" y="16.17" width="0.73" height="0.01"></rect><rect class="cls-2" x="21.06" y="16.17" width="0.73" height="0.01"></rect><rect class="cls-2" x="21.06" y="16.18" width="0.73" height="0.01"></rect><rect class="cls-2" x="21.06" y="16.18" width="0.73" height="0.01"></rect><rect class="cls-2" x="21.06" y="16.19" width="0.73" height="0.01"></rect><rect class="cls-2" x="21.06" y="16.2" width="0.73" height="0.01"></rect><rect class="cls-2" x="21.06" y="16.2" width="0.73" height="0.01"></rect><rect class="cls-2" x="21.06" y="16.21" width="0.73"></rect><rect class="cls-2" x="21.06" y="16.21" width="0.73" height="0.01"></rect><rect class="cls-2" x="21.06" y="16.22" width="0.73" height="0.01"></rect><rect class="cls-2" x="21.06" y="16.22" width="0.73" height="0.01"></rect><rect class="cls-2" x="21.06" y="16.23" width="0.73" height="0.01"></rect><rect class="cls-2" x="21.06" y="16.24" width="0.73" height="0.01"></rect><rect class="cls-2" x="21.06" y="16.24" width="0.73"></rect><rect class="cls-2" x="21.06" y="16.25" width="0.73" height="0.01"></rect><rect class="cls-2" x="21.06" y="16.25" width="0.73" height="0.01"></rect><rect class="cls-2" x="21.06" y="16.26" width="0.73" height="0.01"></rect><rect class="cls-2" x="21.06" y="16.26" width="0.73" height="0.01"></rect><rect class="cls-2" x="21.06" y="16.27" width="0.73" height="0.01"></rect><rect class="cls-2" x="21.06" y="16.28" width="0.73"></rect><rect class="cls-2" x="21.06" y="16.28" width="0.73" height="0.01"></rect><rect class="cls-2" x="21.06" y="16.29" width="0.73" height="0.01"></rect><rect class="cls-2" x="21.06" y="16.29" width="0.73" height="0.01"></rect><rect class="cls-2" x="21.06" y="16.3" width="0.73" height="0.01"></rect><rect class="cls-2" x="21.06" y="16.31" width="0.73" height="0.01"></rect><rect class="cls-2" x="21.06" y="16.31" width="0.73"></rect><rect class="cls-2" x="21.06" y="16.32" width="0.73" height="0.01"></rect><rect class="cls-2" x="21.06" y="16.32" width="0.73" height="0.01"></rect><rect class="cls-2" x="21.06" y="16.33" width="0.73" height="0.01"></rect><rect class="cls-2" x="21.06" y="16.33" width="0.73" height="0.01"></rect><rect class="cls-2" x="21.06" y="16.34" width="0.73"></rect><rect class="cls-2" x="21.06" y="16.34" width="0.73" height="0.01"></rect><rect class="cls-2" x="21.06" y="16.35" width="0.73"></rect><rect class="cls-2" x="21.06" y="16.36" width="0.73" height="0.01"></rect><rect class="cls-2" x="21.06" y="16.36" width="0.73"></rect><rect class="cls-2" x="21.06" y="16.37" width="0.73" height="0.01"></rect><rect class="cls-2" x="21.06" y="16.37" width="0.73" height="0.01"></rect><rect class="cls-2" x="21.06" y="16.38" width="0.73" height="0.01"></rect><rect class="cls-2" x="21.06" y="16.39" width="0.73"></rect><rect class="cls-2" x="21.06" y="16.39" width="0.73" height="0.01"></rect><rect class="cls-2" x="21.06" y="16.4" width="0.73" height="0.01"></rect><rect class="cls-2" x="21.06" y="16.4" width="0.73" height="0.01"></rect><rect class="cls-2" x="21.06" y="16.41" width="0.73" height="0.01"></rect><rect class="cls-2" x="21.06" y="16.42" width="0.73"></rect><rect class="cls-2" x="21.06" y="16.42" width="0.73" height="0.01"></rect><rect class="cls-2" x="21.06" y="16.43" width="0.73" height="0.01"></rect><rect class="cls-2" x="21.06" y="16.43" width="0.73"></rect><rect class="cls-2" x="21.06" y="16.44" width="0.73" height="0.01"></rect><rect class="cls-2" x="21.06" y="16.44" width="0.73" height="0.01"></rect><rect class="cls-2" x="21.06" y="16.45" width="0.73" height="0.01"></rect><rect class="cls-2" x="21.06" y="16.45" width="0.73" height="0.01"></rect><rect class="cls-2" x="21.06" y="16.46" width="0.73" height="0.01"></rect><rect class="cls-2" x="21.06" y="16.47" width="0.73" height="0.01"></rect><rect class="cls-2" x="21.06" y="16.47" width="0.73" height="0.01"></rect><rect class="cls-2" x="21.06" y="16.48" width="0.73" height="0.01"></rect><rect class="cls-2" x="21.06" y="16.48" width="0.73" height="0.01"></rect><rect class="cls-2" x="21.06" y="16.49" width="0.73"></rect><rect class="cls-2" x="21.06" y="16.5" width="0.73"></rect></g><path id="SVGID-15" data-name="SVGID" class="cls-1" d="M23.12,14.1a9.35,9.35,0,0,0-2.5.31,7.41,7.41,0,0,0-1.09.4h0a6.42,6.42,0,0,0-1.34.84,5,5,0,0,0-1.24,1.41,4.16,4.16,0,0,0-.24.47h0a5.26,5.26,0,0,0-.44,2.17,5.31,5.31,0,0,0,.4,2.05h1.48A3,3,0,0,0,20,21.18l0,0,0,0a2.49,2.49,0,0,1-.33-1.28,2.4,2.4,0,0,1,.72-1.79v0l.13-.09h0l.06-.05,0,0h0a3,3,0,0,1,.24-.18l.11-.07a3,3,0,0,1,.72-.34,4.3,4.3,0,0,1,1.34-.19h5.71l2.28-3Z" transform="translate(0 -1.1)"></path><g class="cls-7"><rect class="cls-1" x="30.62" y="13" width="0.49" height="7.65"></rect><rect class="cls-1" x="29.9" y="13" width="0.72" height="7.65"></rect><rect class="cls-1" x="29.18" y="13" width="0.72" height="7.65"></rect><rect class="cls-1" x="28.47" y="13" width="0.72" height="7.65"></rect><rect class="cls-1" x="27.75" y="13" width="0.72" height="7.65"></rect><rect class="cls-1" x="27.03" y="13" width="0.72" height="7.65"></rect><rect class="cls-1" x="26.31" y="13" width="0.72" height="7.65"></rect><rect class="cls-1" x="25.59" y="13" width="0.72" height="7.65"></rect><rect class="cls-1" x="24.88" y="13" width="0.72" height="7.65"></rect><rect class="cls-1" x="24.15" y="13" width="0.72" height="7.65"></rect><rect class="cls-1" x="23.44" y="13" width="0.72" height="7.65"></rect><rect class="cls-1" x="22.72" y="13" width="0.72" height="7.65"></rect><rect class="cls-1" x="22" y="13" width="0.72" height="7.65"></rect><rect class="cls-1" x="21.28" y="13" width="0.72" height="7.65"></rect><rect class="cls-1" x="20.57" y="13" width="0.72" height="7.65"></rect><rect class="cls-1" x="19.85" y="13" width="0.72" height="7.65"></rect><rect class="cls-1" x="19.13" y="13" width="0.72" height="7.65"></rect><rect class="cls-1" x="18.41" y="13" width="0.72" height="7.65"></rect><rect class="cls-1" x="17.69" y="13" width="0.72" height="7.65"></rect><rect class="cls-1" x="16.97" y="13" width="0.72" height="7.65"></rect><rect class="cls-1" x="16.26" y="13" width="0.71" height="7.65"></rect><rect class="cls-1" x="16.24" y="13" width="0.01" height="7.65"></rect></g><path id="SVGID-16" data-name="SVGID" class="cls-2" d="M20.5,18v0a.58.58,0,0,1,.14-.13Z" transform="translate(0 -1.1)"></path><g class="cls-5"><rect class="cls-2" x="20.49" y="16.82" width="0.14"></rect><rect class="cls-2" x="20.49" y="16.82" width="0.14"></rect><rect class="cls-2" x="20.49" y="16.82" width="0.14"></rect><rect class="cls-2" x="20.49" y="16.83" width="0.14"></rect><rect class="cls-2" x="20.49" y="16.83" width="0.14"></rect><rect class="cls-2" x="20.49" y="16.83" width="0.14"></rect><rect class="cls-2" x="20.49" y="16.83" width="0.14"></rect><rect class="cls-2" x="20.49" y="16.84" width="0.14"></rect><rect class="cls-2" x="20.49" y="16.84" width="0.14"></rect><rect class="cls-2" x="20.49" y="16.84" width="0.14"></rect><rect class="cls-2" x="20.49" y="16.84" width="0.14"></rect><rect class="cls-2" x="20.49" y="16.84" width="0.14"></rect><rect class="cls-2" x="20.49" y="16.85" width="0.14"></rect><rect class="cls-2" x="20.49" y="16.85" width="0.14"></rect><rect class="cls-2" x="20.49" y="16.85" width="0.14"></rect><rect class="cls-2" x="20.49" y="16.85" width="0.14"></rect><rect class="cls-2" x="20.49" y="16.86" width="0.14"></rect><rect class="cls-2" x="20.49" y="16.86" width="0.14"></rect><rect class="cls-2" x="20.49" y="16.86" width="0.14"></rect><rect class="cls-2" x="20.49" y="16.86" width="0.14"></rect><rect class="cls-2" x="20.49" y="16.86" width="0.14"></rect><rect class="cls-2" x="20.49" y="16.87" width="0.14"></rect><rect class="cls-2" x="20.49" y="16.87" width="0.14"></rect><rect class="cls-2" x="20.49" y="16.87" width="0.14"></rect><rect class="cls-2" x="20.49" y="16.87" width="0.14"></rect><rect class="cls-2" x="20.49" y="16.88" width="0.14"></rect><rect class="cls-2" x="20.49" y="16.88" width="0.14"></rect><rect class="cls-2" x="20.49" y="16.88" width="0.14"></rect><rect class="cls-2" x="20.49" y="16.88" width="0.14"></rect><rect class="cls-2" x="20.49" y="16.89" width="0.14"></rect><rect class="cls-2" x="20.49" y="16.89" width="0.14"></rect><rect class="cls-2" x="20.49" y="16.89" width="0.14"></rect><rect class="cls-2" x="20.49" y="16.89" width="0.14"></rect><rect class="cls-2" x="20.49" y="16.89" width="0.14"></rect><rect class="cls-2" x="20.49" y="16.9" width="0.14"></rect><rect class="cls-2" x="20.49" y="16.9" width="0.14"></rect><rect class="cls-2" x="20.49" y="16.9" width="0.14"></rect><rect class="cls-2" x="20.49" y="16.9" width="0.14"></rect><rect class="cls-2" x="20.49" y="16.91" width="0.14"></rect><rect class="cls-2" x="20.49" y="16.91" width="0.14"></rect><rect class="cls-2" x="20.49" y="16.91" width="0.14"></rect><rect class="cls-2" x="20.49" y="16.91" width="0.14"></rect><rect class="cls-2" x="20.49" y="16.91" width="0.14"></rect><rect class="cls-2" x="20.49" y="16.92" width="0.14"></rect><rect class="cls-2" x="20.49" y="16.92" width="0.14"></rect><rect class="cls-2" x="20.49" y="16.92" width="0.14"></rect><rect class="cls-2" x="20.49" y="16.92" width="0.14"></rect><rect class="cls-2" x="20.49" y="16.93" width="0.14"></rect><rect class="cls-2" x="20.49" y="16.93" width="0.14"></rect><rect class="cls-2" x="20.49" y="16.93" width="0.14"></rect><rect class="cls-2" x="20.49" y="16.93" width="0.14"></rect><rect class="cls-2" x="20.49" y="16.94" width="0.14"></rect><rect class="cls-2" x="20.49" y="16.94" width="0.14"></rect><rect class="cls-2" x="20.49" y="16.94" width="0.14"></rect><rect class="cls-2" x="20.49" y="16.94" width="0.14"></rect><rect class="cls-2" x="20.49" y="16.94" width="0.14"></rect><rect class="cls-2" x="20.49" y="16.95" width="0.14"></rect><rect class="cls-2" x="20.49" y="16.95" width="0.14"></rect><rect class="cls-2" x="20.49" y="16.95" width="0.14"></rect><rect class="cls-2" x="20.49" y="16.95" width="0.14"></rect><rect class="cls-2" x="20.49" y="16.95" width="0.14"></rect></g><path id="SVGID-17" data-name="SVGID" class="cls-2" d="M21.06,17.59a3.65,3.65,0,0,1,.72-.34,3,3,0,0,0-.72.34" transform="translate(0 -1.1)"></path><g class="cls-6"><rect class="cls-2" x="21.06" y="16.15" width="0.73"></rect><rect class="cls-2" x="21.06" y="16.15" width="0.73" height="0.01"></rect><rect class="cls-2" x="21.06" y="16.16" width="0.73" height="0.01"></rect><rect class="cls-2" x="21.06" y="16.17" width="0.73" height="0.01"></rect><rect class="cls-2" x="21.06" y="16.17" width="0.73" height="0.01"></rect><rect class="cls-2" x="21.06" y="16.18" width="0.73" height="0.01"></rect><rect class="cls-2" x="21.06" y="16.18" width="0.73" height="0.01"></rect><rect class="cls-2" x="21.06" y="16.19" width="0.73" height="0.01"></rect><rect class="cls-2" x="21.06" y="16.2" width="0.73" height="0.01"></rect><rect class="cls-2" x="21.06" y="16.2" width="0.73" height="0.01"></rect><rect class="cls-2" x="21.06" y="16.21" width="0.73"></rect><rect class="cls-2" x="21.06" y="16.21" width="0.73" height="0.01"></rect><rect class="cls-2" x="21.06" y="16.22" width="0.73" height="0.01"></rect><rect class="cls-2" x="21.06" y="16.22" width="0.73" height="0.01"></rect><rect class="cls-2" x="21.06" y="16.23" width="0.73" height="0.01"></rect><rect class="cls-2" x="21.06" y="16.24" width="0.73" height="0.01"></rect><rect class="cls-2" x="21.06" y="16.24" width="0.73"></rect><rect class="cls-2" x="21.06" y="16.25" width="0.73" height="0.01"></rect><rect class="cls-2" x="21.06" y="16.25" width="0.73" height="0.01"></rect><rect class="cls-2" x="21.06" y="16.26" width="0.73" height="0.01"></rect><rect class="cls-2" x="21.06" y="16.26" width="0.73" height="0.01"></rect><rect class="cls-2" x="21.06" y="16.27" width="0.73" height="0.01"></rect><rect class="cls-2" x="21.06" y="16.28" width="0.73"></rect><rect class="cls-2" x="21.06" y="16.28" width="0.73" height="0.01"></rect><rect class="cls-2" x="21.06" y="16.29" width="0.73" height="0.01"></rect><rect class="cls-2" x="21.06" y="16.29" width="0.73" height="0.01"></rect><rect class="cls-2" x="21.06" y="16.3" width="0.73" height="0.01"></rect><rect class="cls-2" x="21.06" y="16.31" width="0.73" height="0.01"></rect><rect class="cls-2" x="21.06" y="16.31" width="0.73"></rect><rect class="cls-2" x="21.06" y="16.32" width="0.73" height="0.01"></rect><rect class="cls-2" x="21.06" y="16.32" width="0.73" height="0.01"></rect><rect class="cls-2" x="21.06" y="16.33" width="0.73" height="0.01"></rect><rect class="cls-2" x="21.06" y="16.33" width="0.73" height="0.01"></rect><rect class="cls-2" x="21.06" y="16.34" width="0.73"></rect><rect class="cls-2" x="21.06" y="16.34" width="0.73" height="0.01"></rect><rect class="cls-2" x="21.06" y="16.35" width="0.73"></rect><rect class="cls-2" x="21.06" y="16.36" width="0.73" height="0.01"></rect><rect class="cls-2" x="21.06" y="16.36" width="0.73"></rect><rect class="cls-2" x="21.06" y="16.37" width="0.73" height="0.01"></rect><rect class="cls-2" x="21.06" y="16.37" width="0.73" height="0.01"></rect><rect class="cls-2" x="21.06" y="16.38" width="0.73" height="0.01"></rect><rect class="cls-2" x="21.06" y="16.39" width="0.73"></rect><rect class="cls-2" x="21.06" y="16.39" width="0.73" height="0.01"></rect><rect class="cls-2" x="21.06" y="16.4" width="0.73" height="0.01"></rect><rect class="cls-2" x="21.06" y="16.4" width="0.73" height="0.01"></rect><rect class="cls-2" x="21.06" y="16.41" width="0.73" height="0.01"></rect><rect class="cls-2" x="21.06" y="16.42" width="0.73"></rect><rect class="cls-2" x="21.06" y="16.42" width="0.73" height="0.01"></rect><rect class="cls-2" x="21.06" y="16.43" width="0.73" height="0.01"></rect><rect class="cls-2" x="21.06" y="16.43" width="0.73"></rect><rect class="cls-2" x="21.06" y="16.44" width="0.73" height="0.01"></rect><rect class="cls-2" x="21.06" y="16.44" width="0.73" height="0.01"></rect><rect class="cls-2" x="21.06" y="16.45" width="0.73" height="0.01"></rect><rect class="cls-2" x="21.06" y="16.45" width="0.73" height="0.01"></rect><rect class="cls-2" x="21.06" y="16.46" width="0.73" height="0.01"></rect><rect class="cls-2" x="21.06" y="16.47" width="0.73" height="0.01"></rect><rect class="cls-2" x="21.06" y="16.47" width="0.73" height="0.01"></rect><rect class="cls-2" x="21.06" y="16.48" width="0.73" height="0.01"></rect><rect class="cls-2" x="21.06" y="16.48" width="0.73" height="0.01"></rect><rect class="cls-2" x="21.06" y="16.49" width="0.73"></rect><rect class="cls-2" x="21.06" y="16.5" width="0.73"></rect></g><path class="cls-2" d="M19.06,14.14a7.15,7.15,0,0,0-1.4.87,6,6,0,0,0-1.42,1.62c-.08.14-.15.27-.22.42H6.24l2.24-3h9.64c.32,0,.64,0,.94,0" transform="translate(0 -1.1)"></path><path id="SVGID-18" data-name="SVGID" class="cls-2" d="M20.5,18v0a.58.58,0,0,1,.14-.13Z" transform="translate(0 -1.1)"></path><g class="cls-5"><rect class="cls-2" x="20.49" y="16.82" width="0.14" height="0.13"></rect></g><path id="SVGID-19" data-name="SVGID" class="cls-2" d="M21.06,17.59a3.65,3.65,0,0,1,.72-.34,3,3,0,0,0-.72.34" transform="translate(0 -1.1)"></path><g class="cls-6"><rect class="cls-2" x="21.06" y="16.15" width="0.73" height="0.34"></rect></g><path class="cls-8" d="M19.06,14.14a7.15,7.15,0,0,0-1.4.87,6,6,0,0,0-1.42,1.62c-.08.14-.15.27-.22.42H6.24l2.24-3h9.64c.32,0,.64,0,.94,0" transform="translate(0 -1.1)"></path><path class="cls-8" d="M25,19.7a5.31,5.31,0,0,1-.39,2.05c-.05.12-.1.24-.16.36l0,.07-.09.18-.13.2a4,4,0,0,1-.51.68l-.07.08a.46.46,0,0,0-.07.07l-.15.15-.16.16-.18.15-.31.25-.28.2-.08.05a1.92,1.92,0,0,1-.31.18l-.34.19-.15.08h0a5.53,5.53,0,0,1-.91.35,8.28,8.28,0,0,1-1.77.32h0l-.73,0H6.24V18.38H9.78v4.18h8.34a4.6,4.6,0,0,0,1.27-.16l.22-.08.2-.07a3.38,3.38,0,0,0,.73-.44l.09-.08,0,0a2.61,2.61,0,0,0,.45-.5s0-.06.06-.1a2.42,2.42,0,0,0,.32-1.27,2.47,2.47,0,0,0-.34-1.3h0l.07-.07,0,0,.14-.1a1.63,1.63,0,0,1,.34-.19l.14-.06A1.79,1.79,0,0,1,22.3,18l.24,0a3.52,3.52,0,0,1,.58,0h1.57A5.4,5.4,0,0,1,25,19.7" transform="translate(0 -1.1)"></path><path class="cls-8" d="M14.87,35.94A16.43,16.43,0,1,1,35.28,20a13.82,13.82,0,0,1-.08,1.58L37.72,21a1.48,1.48,0,0,0,0-.21h0c0-.25,0-.5,0-.76a18.76,18.76,0,0,0-1.89-8.22l-.16-.33-.17-.32A18.88,18.88,0,1,0,12.69,37.87Z" transform="translate(0 -1.1)"></path><path class="cls-8" d="M21.44,36.24a16.58,16.58,0,0,1-2.56.2h0l-3,2.24a19.8,19.8,0,0,0,3,.24,18.3,18.3,0,0,0,2.47-.17Z" transform="translate(0 -1.1)"></path><path id="SVGID-20" data-name="SVGID" class="cls-1" d="M31.78,23.52s1.56,1.48,3.38,3.25l-9.92,10.7L25,30.74l-.07-1.66-1.2,1.06L8.15,43.9,23.37,32.35l-.29,7.9L23,42.94l2-1.89L37.7,29.25a27.49,27.49,0,0,1,3,3.23c0,.46,2.82-11.52,2.82-11.52Z" transform="translate(0 -1.1)"></path><g class="cls-9"><rect class="cls-1" x="8.15" y="19.87" width="35.4" height="22.94"></rect></g><text class="cls-10" transform="translate(46.26 35.54) scale(1.04 1)">Ensu</text><text class="cls-10" transform="translate(65.11 35.54) scale(1.04 1)">r</text><text class="cls-10" transform="translate(68.11 35.54) scale(1.04 1)">e G</text><text class="cls-10" transform="translate(80.96 35.54) scale(1.04 1)">r</text><text class="cls-10" transform="translate(83.96 35.54) scale(1.04 1)">o</text><text class="cls-10" transform="translate(89.09 35.54) scale(1.04 1)">wth of</text><text class="cls-10" transform="translate(114.38 35.54) scale(1.04 1)"> </text><text class="cls-10" transform="translate(115.95 35.54) scale(1.04 1)">Y</text><path class="cls-8" d="M56,23.28H46.72V3.1h9.19a11.55,11.55,0,0,1,5.13,1,6.17,6.17,0,0,1,2.83,2.6,14.5,14.5,0,0,1,1.18,2.88,11.11,11.11,0,0,1,.34,2.79V13.6c0,3.53-.74,5.92-2.21,7.14a10,10,0,0,1-3.68,2.19,15,15,0,0,1-3.51.35M55.86,6.61H51V19.77h4.91A10,10,0,0,0,58,19.59a3,3,0,0,0,1.52-.91,4.69,4.69,0,0,0,1.08-2.34,18.57,18.57,0,0,0,.24-3.14,18.25,18.25,0,0,0-.24-3.08,4.48,4.48,0,0,0-1-2.25,2.84,2.84,0,0,0-1.36-1A9.65,9.65,0,0,0,57,6.66a11.09,11.09,0,0,0-1.17,0" transform="translate(0 -1.1)"></path><path class="cls-8" d="M68,3.1h4V6.77H68Zm0,5.38h4v14.8H68Z" transform="translate(0 -1.1)"></path><path class="cls-8" d="M82.14,8.48h7.12V22.72a8.07,8.07,0,0,1-.57,3.22,4.15,4.15,0,0,1-1.81,2,7,7,0,0,1-3.22.65H76v-3H83a2.06,2.06,0,0,0,2.35-2.31H81.78c-.79,0-1.43,0-1.92-.08a6.14,6.14,0,0,1-1.61-.45,6.08,6.08,0,0,1-1.81-1.26A6.29,6.29,0,0,1,75,19.13a9.15,9.15,0,0,1-.54-3.2c0-2.4.48-4.06,1.46-5a9.28,9.28,0,0,1,2.35-1.8,6.3,6.3,0,0,1,1.8-.5c.59-.08,1-.12,1.37-.13l.75,0m.68,11.74h2.49V11.66l-.45,0h-1.6a10.38,10.38,0,0,0-2.37.25,2.79,2.79,0,0,0-1.49.83,4,4,0,0,0-.69,1.15,3.83,3.83,0,0,0-.21,1.31V16A4,4,0,0,0,80,19.61a2.48,2.48,0,0,0,1.16.5,9.38,9.38,0,0,0,1.64.11" transform="translate(0 -1.1)"></path><path class="cls-8" d="M92.49,3.1h4V6.77h-4Zm0,5.38h4v14.8h-4Z" transform="translate(0 -1.1)"></path><path class="cls-8" d="M101.18,11.43H98.46V8.48h2.72V3.1h3.89V8.48h4.17v2.95h-4.17v6a3.48,3.48,0,0,0,.44,2,1.86,1.86,0,0,0,1.18.81,13.53,13.53,0,0,0,2.17.14h.38v3h-3.55a4.4,4.4,0,0,1-3.37-1.23,4.79,4.79,0,0,1-1.14-3.37Z" transform="translate(0 -1.1)"></path><path class="cls-8" d="M118.33,11.55h-6.54V8.48h8a11.15,11.15,0,0,1,2.61.29,4.81,4.81,0,0,1,2.33,1.47A5.34,5.34,0,0,1,125.87,14v9.26H115.41a4.53,4.53,0,0,1-3.36-1.18,4.1,4.1,0,0,1-1.24-3.2v-.39a6,6,0,0,1,.59-2.09,3.22,3.22,0,0,1,1.27-1.29,5.59,5.59,0,0,1,1.75-.65,12.59,12.59,0,0,1,2.31-.18h5.16a3,3,0,0,0-.44-1.78,2,2,0,0,0-1.18-.79,8.46,8.46,0,0,0-1.94-.18M117,20.33h4.88V17.25h-4.6a4.2,4.2,0,0,0-1.67.29,1.22,1.22,0,0,0-.68,1.25,1.57,1.57,0,0,0,.29,1,1.37,1.37,0,0,0,.7.45,4.57,4.57,0,0,0,1.08.09" transform="translate(0 -1.1)"></path><rect class="cls-8" x="129.29" y="2" width="4.04" height="20.19"></rect><path class="cls-1" d="M152.21,3.1V6.55h-7a4.6,4.6,0,0,0-2.94.88,3.92,3.92,0,0,0-1.4,2,15.29,15.29,0,0,0-.45,2,12.47,12.47,0,0,0-.14,1.81v.68c0,.26,0,.55,0,.85s.06.69.11,1.13a6.15,6.15,0,0,0,.38,1.42,5.09,5.09,0,0,0,.82,1.4,3,3,0,0,0,1.51.91,10,10,0,0,0,2.09.18h6.94v3.51h-7.09a14.06,14.06,0,0,1-3.42-.35,7.81,7.81,0,0,1-2.84-1.42A8,8,0,0,1,136.45,18a13.24,13.24,0,0,1-.72-4.43V12.36a10,10,0,0,1,.23-2.13,14.56,14.56,0,0,1,.56-2,8,8,0,0,1,.78-1.63,10.15,10.15,0,0,1,1.32-1.57,5.36,5.36,0,0,1,2.1-1.28A12.58,12.58,0,0,1,143,3.24a15.57,15.57,0,0,1,2.16-.14Z" transform="translate(0 -1.1)"></path><path class="cls-1" d="M158.88,23.28H155V8.48h6.56a5.67,5.67,0,0,1,2.69.51,2.31,2.31,0,0,1,1.15,1.38,8.9,8.9,0,0,1,.26,2.41v1.89H162V13.48a5.38,5.38,0,0,0-.14-1.52.87.87,0,0,0-.53-.53l-.65-.08c-.18,0-.49,0-.92,0h-.85Z" transform="translate(0 -1.1)"></path><path class="cls-1" d="M180.69,21.51a6.44,6.44,0,0,1-2.19,1.39,11.21,11.21,0,0,1-1.87.55,8.15,8.15,0,0,1-1.58.14A9.07,9.07,0,0,1,172,23a6.94,6.94,0,0,1-2.56-1.53,5.84,5.84,0,0,1-1.47-2.14,11.41,11.41,0,0,1-.59-1.91,8.11,8.11,0,0,1-.14-1.59,7.48,7.48,0,0,1,.43-2.71,9.7,9.7,0,0,1,.82-1.7,8.82,8.82,0,0,1,1.18-1.39,6.3,6.3,0,0,1,2.26-1.35,9.42,9.42,0,0,1,6.23,0,6.17,6.17,0,0,1,2.3,1.32,8.4,8.4,0,0,1,1.21,1.4,9.41,9.41,0,0,1,.82,1.68,7.8,7.8,0,0,1,.42,2.77,8.7,8.7,0,0,1-.55,3.08,7,7,0,0,1-1.64,2.56m-6.95-1.34a1.94,1.94,0,0,0,.57.16,4.2,4.2,0,0,0,.69.06,3.66,3.66,0,0,0,2.19-.7,3.35,3.35,0,0,0,1.3-1.71,6.6,6.6,0,0,0,.32-2.05,5.73,5.73,0,0,0-.55-2.6,3.27,3.27,0,0,0-1.74-1.61,3.78,3.78,0,0,0-3,0,4.17,4.17,0,0,0-1.26.93,3.7,3.7,0,0,0-.77,1.38,6,6,0,0,0-.27,1.88,5.4,5.4,0,0,0,.61,2.58,3.49,3.49,0,0,0,1.86,1.66" transform="translate(0 -1.1)"></path><path class="cls-1" d="M189.16,28.59h-3.87V8.48h7.48A9,9,0,0,1,195.7,9a6,6,0,0,1,2.27,1.4,6.21,6.21,0,0,1,1.41,2.23,7.44,7.44,0,0,1,.47,1.4,7.25,7.25,0,0,1,.15,1.52V16a8.16,8.16,0,0,1-1.6,5,5.32,5.32,0,0,1-1.62,1.37,7.14,7.14,0,0,1-1.93.68,12.59,12.59,0,0,1-2.3.19h-3.39Zm0-16.93v8.45h1.45a13.31,13.31,0,0,0,3-.25,2.79,2.79,0,0,0,1.68-1.18,5.23,5.23,0,0,0,.63-2.89v-.28c0-1.54-.36-2.56-1.08-3.08a5.49,5.49,0,0,0-3.18-.77h-2.46Z" transform="translate(0 -1.1)"></path><rect class="cls-11" x="46.11" y="27.74" width="151.84" height="9.15"></rect><text class="cls-10" transform="translate(120.35 35.54) scale(1.04 1)">our Online Business</text></svg>